<svg version="1.1" xmlns="https://www.w3.org/2000/svg" xmlns:xlink="http://www.w3.org/1999/xlink" x="0px" y="0px" width="160px" height="36px" viewBox="0 0 956.25 215.52" style="enable-background:new 0 0 956.25 215.52;" xml:space="preserve">
<style type="text/css">
	.st0{fill-rule:evenodd;clip-rule:evenodd;}
</style>
<g id="Page-1_1_">
	<g id="plantable_logo_1_">
		<path id="Shape_1_" d="M73.1,54.78c-18.56,0-33.98,11.63-39.12,27.27V57.01L0,61.07v8.6v145.85h33.98v-65.73
			c5.81,10.73,18.11,19.9,35.1,19.9c28.39,0,53.66-22.36,53.66-59.69C122.73,73.11,97.69,54.78,73.1,54.78z M60.35,152.92
			c-12.81,0-24.65-12.03-26.38-29.03V106.4c1.59-17.95,11.84-31.5,26.6-31.5c16.1,0,26.16,11.85,26.16,37.34
			C86.73,139.95,76.45,152.92,60.35,152.92z"></path>
		<polygon id="Path_1_" class="st0" points="796.76,167.45 830.75,167.45 830.75,0 796.76,4.06 		"></polygon>
		<polygon class="st0" points="138.24,167.45 172.22,167.45 172.22,0 138.24,4.06 		"></polygon>
		<path class="st0" d="M387.66,54.78c-17.66,0-31.3,9.84-38.01,27.05V57.01l-33.98,4.06v15.08v91.31h33.98v-54.1
			c0-21.91,10.06-35.1,22.58-35.1c12.52,0,17.89,8.93,17.89,21.23v67.96h33.98V93.67C424.1,71.99,412.7,54.78,387.66,54.78z"></path>
		<path d="M731.17,54.78c-19,0-34.21,12.52-38.68,27.5V0.01l-33.98,4.06v163.39h31.3h2.68v-17.3c5.98,10.6,18.1,19.53,35.32,19.53
			c28.39,0,53.43-22.58,53.43-59.92C781.25,72.88,756.22,54.78,731.17,54.78z M718.88,152.92c-12.81,0-24.66-12.03-26.38-29.03
			V106.4c1.59-17.95,11.84-31.5,26.6-31.5c16.1,0,26.16,11.85,26.16,37.34C745.26,139.95,734.98,152.92,718.88,152.92z"></path>
		<path d="M912.43,151.8c-17.44,0-30.63-10.51-31.07-38.45h74.89c0-34.88-18.11-58.57-52.31-58.57c-31.3,0-57.68,22.36-57.68,59.47
			c0,35.32,26.16,55.44,57.46,55.44c27.28,0,45.61-13.19,51.87-36.44l-13.35-3.43C936.21,144.07,927.56,151.8,912.43,151.8z
			 M903.71,68.86c15.2,0,18.78,13.64,18.78,31.08H881.8C883.59,78.25,890.97,68.86,903.71,68.86z"></path>
		<path d="M244.27,54.78c-26.15,0-43.03,13.35-43.58,29.06l-0.01,5.38l19.42-0.12c0,0-4.21-18.75,19.02-18.75
			c16.54,0,19.93,9.41,19.93,21.99v8.27l-18.56,3.13c-26.6,4.69-52.76,12.07-52.76,36.89c0,18.78,15.2,29.06,33.31,29.06
			c18.82,0,32.73-9.83,38.01-23.4v21.16h33.53v-69.3C292.58,72.76,278.12,54.78,244.27,54.78z M259.05,118.04
			c0,17.21-10.73,31.52-23.48,31.52c-8.72,0-14.76-4.69-14.76-13.86c0-11.4,8.72-16.77,24.59-19.9l13.64-2.46L259.05,118.04
			L259.05,118.04z"></path>
		<path d="M589.09,54.78c-26.15,0-43.03,13.35-43.58,29.06l-0.01,5.38l19.42-0.12c0,0-4.21-18.75,19.02-18.75
			c16.54,0,19.93,9.41,19.93,21.99v8.27l-18.56,3.13c-26.6,4.69-52.76,12.07-52.76,36.89c0,18.78,15.2,29.06,33.31,29.06
			c18.82,0,32.72-9.83,38.01-23.4v21.16h33.53v-69.3C637.4,72.76,622.94,54.78,589.09,54.78z M603.87,118.04
			c0,17.21-10.73,31.52-23.48,31.52c-8.72,0-14.76-4.69-14.76-13.86c0-11.4,8.72-16.77,24.59-19.9l13.64-2.46v4.7H603.87z"></path>
		<path class="st0" d="M492.84,150.68c-8.94,0-13.64-6.04-13.64-16.54V73.55h37.15l-0.04-16.54H479.2V30.67l-33.31,3.98l-0.23,22.36
			v16.54l-0.45,59.24c-0.22,24.82,15.65,36.89,37.34,36.89c26.83,0,40.91-17.66,41.36-40.91H509.5
			C508.5,143.64,502.95,150.68,492.84,150.68z"></path>
	</g>
</g>
</svg>
